<?xml version="1.0" encoding="UTF-8" ?>
<!DOCTYPE svg PUBLIC "-//W3C//DTD SVG 1.1//EN" "http://www.w3.org/Graphics/SVG/1.1/DTD/svg11.dtd">
<svg width="340pt" height="261pt" viewBox="0 0 340 261" version="1.1" xmlns="http://www.w3.org/2000/svg">
<path fill="#30276e" stroke="#30276e" stroke-width="0.09375" opacity="1.00" d=" M 94.83 27.02 C 114.71 25.14 135.27 25.93 154.22 32.75 C 157.18 33.77 156.10 37.34 155.69 39.63 C 153.35 50.22 152.44 61.11 149.64 71.59 C 142.76 72.16 135.89 71.18 129.00 71.31 C 125.02 71.17 120.99 71.61 117.04 70.97 C 114.60 70.77 113.47 68.34 112.52 66.43 C 107.32 55.04 102.15 43.63 96.59 32.40 C 95.72 30.71 95.16 28.89 94.83 27.02 Z" />
<path fill="#f4ae0c" stroke="#f4ae0c" stroke-width="0.09375" opacity="1.00" d=" M 70.36 32.98 C 75.82 30.03 82.43 28.98 88.58 29.40 C 91.94 31.97 93.19 36.19 95.21 39.74 C 100.50 49.49 104.34 59.90 108.98 69.96 C 104.11 71.36 98.99 70.46 94.01 70.72 C 90.63 70.52 87.05 71.26 83.81 70.22 C 82.91 68.69 82.37 66.99 81.80 65.33 C 78.30 54.44 74.01 43.82 70.36 32.98 Z" />
<path fill="#30276e" stroke="#30276e" stroke-width="0.09375" opacity="1.00" d=" M 240.20 39.40 C 246.01 37.67 251.51 35.11 257.23 33.12 C 260.77 47.09 261.37 61.59 262.61 75.90 C 263.20 83.95 263.96 91.98 264.43 100.03 C 264.94 102.00 262.98 103.88 261.02 103.31 C 252.16 101.99 243.12 100.76 234.92 96.92 C 231.83 95.40 227.90 95.21 225.47 92.58 C 224.36 77.69 225.90 62.60 229.33 48.06 C 229.80 46.15 230.33 44.17 231.60 42.61 C 234.19 40.92 237.31 40.41 240.20 39.40 Z" />
<path fill="#00984b" stroke="#00984b" stroke-width="0.09375" opacity="1.00" d=" M 161.53 37.14 C 166.02 37.84 171.05 40.46 172.63 44.97 C 169.90 54.48 167.31 64.10 166.20 73.97 C 162.25 73.61 157.11 73.62 154.73 69.89 C 155.90 58.80 158.91 47.96 161.53 37.14 Z" />
<path fill="#30276e" stroke="#30276e" stroke-width="0.09375" opacity="1.00" d=" M 217.66 43.88 C 221.08 43.40 224.51 42.71 227.99 42.93 C 227.00 47.81 225.18 52.48 224.11 57.36 C 221.38 68.41 220.37 79.82 220.68 91.20 C 219.20 91.39 217.67 91.43 216.29 90.77 C 201.39 85.36 186.09 81.06 171.21 75.62 C 170.93 70.39 172.24 65.26 172.73 60.07 C 173.45 55.68 173.34 51.12 174.79 46.87 C 175.43 44.79 178.16 44.91 179.92 44.76 C 192.50 45.46 205.14 45.34 217.66 43.88 Z" />
<path fill="#30276e" stroke="#30276e" stroke-width="0.09375" opacity="1.00" d=" M 85.43 77.85 C 93.38 75.78 101.72 76.34 109.87 76.24 C 112.07 75.95 112.22 78.60 112.73 80.11 C 116.87 100.03 121.47 119.87 125.41 139.83 L 124.79 140.51 C 113.62 142.20 102.15 142.13 91.04 140.09 C 89.04 139.79 86.35 138.54 87.10 136.06 C 89.06 123.53 90.06 110.74 88.52 98.09 C 88.12 91.25 85.97 84.67 85.43 77.85 Z" />
<path fill="#30276e" stroke="#30276e" stroke-width="0.09375" opacity="1.00" d=" M 116.75 76.17 C 127.52 76.42 138.32 76.31 149.04 77.31 C 149.62 86.51 149.18 95.75 149.23 104.97 C 148.31 115.36 149.74 125.76 149.40 136.15 C 144.26 137.25 139.10 138.24 133.97 139.36 C 132.64 139.49 130.23 140.44 129.95 138.36 C 126.02 121.64 122.77 104.75 118.88 88.02 C 118.08 84.09 116.87 80.20 116.75 76.17 Z" />
<path fill="#f4ae0c" stroke="#f4ae0c" stroke-width="0.09375" opacity="1.00" d=" M 154.37 79.24 C 158.32 77.55 162.60 79.48 166.45 80.60 C 168.33 83.26 167.38 86.78 168.07 89.80 C 169.41 103.83 175.04 116.89 180.83 129.57 C 171.49 131.60 162.04 133.30 152.57 134.57 C 152.32 130.82 152.16 127.05 152.58 123.31 C 154.06 113.25 152.47 102.99 154.05 92.94 C 154.47 88.39 154.28 83.81 154.37 79.24 Z" />
<path fill="#00984b" stroke="#00984b" stroke-width="0.09375" opacity="1.00" d=" M 170.26 81.99 C 173.81 82.15 177.20 83.28 180.50 84.50 C 192.58 88.85 204.95 92.35 216.95 96.90 C 219.17 97.63 219.60 100.19 220.00 102.18 C 221.54 111.65 223.38 121.08 224.71 130.59 C 213.43 130.99 202.20 129.72 190.93 129.77 C 188.68 129.79 185.90 129.56 184.71 127.32 C 176.79 113.46 171.41 97.96 170.26 81.99 Z" />
<path fill="#30276e" stroke="#30276e" stroke-width="0.09375" opacity="1.00" d=" M 224.62 99.46 C 232.13 100.73 238.83 104.87 246.24 106.66 C 251.50 108.10 256.98 108.15 262.38 108.54 C 262.47 121.37 263.28 134.20 263.11 147.01 C 253.47 143.14 244.18 138.44 234.66 134.28 C 231.43 133.18 231.50 129.29 230.63 126.56 C 228.69 117.51 226.10 108.59 224.62 99.46 Z" />
<path fill="#30276e" stroke="#30276e" stroke-width="0.09375" opacity="1.00" d=" M 189.00 135.04 C 196.00 134.83 203.00 135.41 209.97 135.89 C 214.89 136.55 219.95 136.08 224.79 137.27 C 227.12 137.80 227.82 140.40 228.61 142.33 C 231.92 152.46 236.05 162.36 241.47 171.56 C 242.94 174.10 244.86 176.42 245.71 179.28 C 239.13 179.42 232.53 179.61 225.96 179.30 C 220.78 179.01 215.97 176.11 213.40 171.60 C 205.39 159.34 196.60 147.57 189.00 135.04 Z" />
<path fill="#30276e" stroke="#30276e" stroke-width="0.09375" opacity="1.00" d=" M 165.11 138.03 C 170.76 137.21 176.37 136.02 182.06 135.50 C 184.40 135.24 185.69 137.57 186.67 139.30 C 192.92 151.21 200.24 162.70 209.50 172.51 C 211.20 174.42 213.47 175.97 214.26 178.52 C 197.49 178.99 180.70 178.53 163.95 179.34 C 161.35 179.66 159.21 177.81 158.87 175.29 C 156.59 165.91 154.27 156.51 152.80 146.97 C 152.55 144.87 152.00 142.40 153.61 140.68 C 157.20 138.99 161.24 138.69 165.11 138.03 Z" />
<path fill="#f4ae0c" stroke="#f4ae0c" stroke-width="0.09375" opacity="1.00" d=" M 234.10 140.12 C 243.84 144.09 253.22 148.85 262.65 153.49 C 262.87 159.34 262.74 165.19 262.77 171.04 C 262.70 173.24 262.99 175.69 261.50 177.52 C 259.31 179.05 256.50 178.61 253.99 178.75 C 251.66 178.72 248.63 179.18 247.55 176.52 C 244.83 170.75 243.05 164.59 240.43 158.77 C 238.39 152.53 235.42 146.58 234.10 140.12 Z" />
<path fill="#f4ae0c" stroke="#f4ae0c" stroke-width="0.09375" opacity="1.00" d=" M 130.10 146.24 C 135.69 143.58 142.10 142.55 148.26 142.44 C 150.55 154.55 152.86 166.72 156.68 178.47 C 151.84 179.00 147.16 180.74 142.26 180.69 C 140.83 180.89 140.42 179.18 139.91 178.22 C 136.10 167.73 132.95 157.02 130.10 146.24 Z" />
<path fill="#30276e" stroke="#30276e" stroke-width="0.09375" opacity="1.00" d=" M 85.61 144.19 C 91.41 144.79 97.03 146.60 102.90 146.63 C 110.25 147.45 117.58 146.17 124.91 145.80 C 125.27 145.99 125.98 146.35 126.34 146.53 C 129.15 154.33 131.14 162.42 133.83 170.27 C 134.84 173.83 136.50 177.26 136.69 181.01 C 119.50 180.94 102.08 180.02 85.40 175.55 C 83.09 174.79 79.64 174.04 79.65 170.98 C 80.49 161.85 83.39 153.05 85.61 144.19 Z" />
<path fill="#30276e" stroke="#30276e" stroke-width="0.09375" opacity="1.00" d=" M 259.63 208.99 C 259.48 206.11 262.17 204.28 263.62 202.06 C 263.49 209.80 263.58 217.55 263.70 225.30 C 272.58 225.32 281.46 225.69 290.33 225.32 C 290.25 223.68 289.46 222.89 287.94 222.95 C 281.38 222.74 274.80 222.99 268.24 222.90 C 269.98 218.35 274.58 216.10 277.98 212.99 C 280.23 210.92 280.83 207.74 282.82 205.47 C 284.29 210.03 282.51 214.58 279.59 218.10 C 284.35 218.55 290.35 217.12 294.00 221.01 C 296.62 225.00 292.93 228.90 289.85 231.18 C 279.81 231.54 269.74 231.24 259.69 231.29 C 259.56 223.86 259.63 216.42 259.63 208.99 Z" />
<path fill="#30276e" stroke="#30276e" stroke-width="0.09375" opacity="1.00" d=" M 249.65 208.97 C 249.40 206.30 251.58 204.43 253.10 202.56 C 253.59 210.70 253.61 218.88 253.61 227.04 C 252.52 228.72 251.11 230.21 249.51 231.43 C 245.43 231.81 241.30 231.65 237.21 231.52 C 232.41 231.18 229.42 224.45 232.98 220.96 C 236.40 218.55 240.82 217.90 243.79 214.76 C 243.70 218.59 243.74 222.42 243.84 226.25 C 245.78 226.39 247.73 226.41 249.67 226.16 C 249.63 220.43 249.60 214.70 249.65 208.97 M 237.15 222.92 C 236.09 223.65 235.69 224.65 235.96 225.91 C 236.89 226.66 238.15 226.39 239.26 226.53 C 239.40 225.92 239.69 224.69 239.83 224.08 C 238.95 223.66 238.06 223.27 237.15 222.92 Z" />
<path fill="#30276e" stroke="#30276e" stroke-width="0.09375" opacity="1.00" d=" M 139.80 204.62 C 142.95 204.48 146.10 204.41 149.25 204.39 C 148.18 213.14 143.16 221.05 142.75 229.86 C 147.19 230.23 151.66 230.06 156.11 230.22 C 155.71 231.43 155.29 232.63 154.86 233.84 C 147.53 234.06 140.20 234.00 132.87 233.91 C 134.66 224.03 137.64 214.41 139.80 204.62 Z" />
<path fill="#30276e" stroke="#30276e" stroke-width="0.09375" opacity="1.00" d=" M 178.60 207.52 C 179.84 205.80 181.49 204.43 183.07 203.04 C 183.01 212.05 182.90 221.07 182.82 230.08 C 183.74 236.99 172.76 240.63 168.78 235.25 C 166.11 232.13 166.41 227.71 166.54 223.87 C 168.68 226.44 168.56 230.53 171.70 232.32 C 173.82 233.81 177.03 233.19 178.27 230.86 C 178.85 223.10 178.04 215.28 178.60 207.52 Z" />
<path fill="#30276e" stroke="#30276e" stroke-width="0.09375" opacity="1.00" d=" M 43.13 204.66 C 47.52 204.45 51.92 204.42 56.31 204.64 C 56.31 214.38 56.68 224.14 56.14 233.86 C 53.11 234.00 50.08 234.00 47.05 233.94 C 46.95 226.15 47.18 218.37 46.98 210.58 C 46.25 210.62 44.80 210.69 44.07 210.73 C 41.34 214.18 39.00 218.02 37.36 222.11 C 39.84 222.28 42.33 222.36 44.82 222.45 C 44.68 223.80 44.53 225.15 44.38 226.50 C 40.98 226.71 37.58 226.69 34.19 226.79 C 32.85 229.24 31.35 231.59 29.89 233.96 C 27.82 233.96 25.74 233.94 23.67 233.88 C 24.51 231.51 25.95 229.43 27.42 227.41 C 32.78 219.91 37.93 212.26 43.13 204.66 Z" />
<path fill="#30276e" stroke="#30276e" stroke-width="0.09375" opacity="1.00" d=" M 77.07 204.62 C 81.40 204.44 85.75 204.46 90.08 204.62 C 90.49 214.37 90.34 224.14 90.09 233.90 C 87.10 233.99 84.12 233.98 81.13 233.88 C 80.72 226.28 81.60 218.61 80.71 211.06 L 79.94 210.49 C 79.47 210.54 78.54 210.63 78.08 210.67 C 75.28 214.10 73.04 218.03 71.34 222.12 C 73.83 222.28 76.33 222.34 78.82 222.44 C 78.66 223.79 78.50 225.14 78.33 226.49 C 74.91 226.71 71.47 226.70 68.04 226.72 C 66.59 229.04 65.72 231.88 63.69 233.76 C 61.72 234.14 59.70 233.90 57.71 233.88 C 58.33 232.22 59.10 230.61 60.14 229.17 C 65.83 221.02 71.47 212.83 77.07 204.62 Z" />
<path fill="#30276e" stroke="#30276e" stroke-width="0.09375" opacity="1.00" d=" M 101.27 210.12 C 101.82 208.28 101.84 206.14 103.10 204.61 C 105.79 204.35 108.51 204.52 111.21 204.63 C 109.53 213.02 107.14 221.26 105.22 229.60 C 107.55 229.54 109.97 229.85 112.22 229.11 C 117.10 226.36 121.45 221.74 122.33 216.04 C 122.47 211.47 117.64 209.87 114.06 208.89 C 114.14 207.58 114.22 206.26 114.30 204.95 C 118.30 203.96 122.42 205.39 126.08 206.94 C 130.17 208.67 132.52 213.71 130.92 217.92 C 128.63 226.20 120.65 231.38 112.81 233.67 C 107.21 234.38 101.54 233.87 95.91 233.88 C 97.33 225.88 99.70 218.09 101.27 210.12 Z" />
<path fill="#30276e" stroke="#30276e" stroke-width="0.09375" opacity="1.00" d=" M 233.56 209.06 C 233.64 206.96 236.32 207.31 237.77 207.21 C 237.78 208.63 238.32 210.21 237.57 211.55 C 235.81 212.55 232.90 211.30 233.56 209.06 Z" />
<path fill="#30276e" stroke="#30276e" stroke-width="0.09375" opacity="1.00" d=" M 240.20 207.32 C 241.47 207.31 242.74 207.30 244.01 207.31 C 244.61 208.80 244.35 210.36 244.02 211.88 C 242.85 211.85 241.70 211.70 240.57 211.43 C 239.54 210.32 240.33 208.66 240.20 207.32 Z" />
<path fill="#30276e" stroke="#30276e" stroke-width="0.09375" opacity="1.00" d=" M 187.97 216.09 C 192.35 220.13 198.60 218.73 203.98 218.67 C 206.47 220.38 206.08 223.78 206.62 226.40 C 207.42 226.36 209.01 226.28 209.81 226.23 C 210.28 223.89 210.41 221.09 212.40 219.46 C 216.42 219.06 221.03 219.79 223.88 216.23 C 223.66 218.64 223.56 221.07 223.41 223.49 C 220.35 224.15 217.22 224.03 214.13 224.35 C 214.07 224.80 213.93 225.71 213.86 226.16 C 217.27 226.66 220.74 226.41 224.18 226.46 C 223.22 228.14 222.16 229.77 221.06 231.36 C 210.02 231.29 198.98 231.62 187.95 231.49 C 188.01 229.76 188.08 228.02 188.15 226.29 C 192.56 226.50 196.98 226.53 201.40 226.42 C 201.32 225.60 201.17 223.97 201.09 223.15 C 196.76 222.93 192.43 222.83 188.09 222.86 C 188.06 220.60 188.02 218.35 187.97 216.09 Z" />
<path fill="#30276e" stroke="#30276e" stroke-width="0.09375" opacity="1.00" d=" M 301.79 220.71 C 304.84 219.72 308.35 220.16 311.01 218.09 C 310.77 223.29 311.27 228.53 310.66 233.70 C 310.29 235.96 307.95 236.76 306.15 237.58 C 307.28 235.59 308.40 233.53 308.31 231.17 C 305.82 230.75 303.05 230.72 300.98 229.08 C 298.65 226.82 298.72 222.32 301.79 220.71 M 303.23 226.95 C 304.40 226.95 305.56 226.95 306.74 226.95 C 306.69 226.24 306.61 224.83 306.57 224.13 C 304.41 222.36 302.71 224.79 303.23 226.95 Z" />
</svg>
